<svg width="89" height="24" viewBox="0 0 89 24" fill="none" xmlns="http://www.w3.org/2000/svg">
<path d="M2.8 23C1.98933 23 1.36 22.776 0.912 22.328C0.485333 21.88 0.272 21.2613 0.272 20.472V2.904C0.272 2.072 0.485333 1.44267 0.912 1.016C1.33867 0.589333 1.95733 0.375999 2.768 0.375999C3.55733 0.375999 4.16533 0.589333 4.592 1.016C5.01867 1.44267 5.232 2.072 5.232 2.904V18.808H13.808C14.4907 18.808 15.0133 18.9893 15.376 19.352C15.76 19.7147 15.952 20.2267 15.952 20.888C15.952 21.5707 15.76 22.0933 15.376 22.456C15.0133 22.8187 14.4907 23 13.808 23H2.8ZM27.8298 23.352C25.6111 23.352 23.6591 22.872 21.9738 21.912C20.3098 20.9307 19.0084 19.5653 18.0698 17.816C17.1524 16.0667 16.6938 14.0293 16.6938 11.704C16.6938 9.93333 16.9498 8.344 17.4618 6.936C17.9951 5.50667 18.7524 4.29067 19.7338 3.288C20.7151 2.264 21.8884 1.47467 23.2538 0.919998C24.6404 0.365332 26.1658 0.0879993 27.8298 0.0879993C30.0911 0.0879993 32.0538 0.568 33.7178 1.528C35.3818 2.488 36.6724 3.84267 37.5898 5.592C38.5284 7.32 38.9978 9.34667 38.9978 11.672C38.9978 13.4427 38.7311 15.0427 38.1978 16.472C37.6644 17.9013 36.9071 19.128 35.9258 20.152C34.9444 21.176 33.7711 21.9653 32.4058 22.52C31.0404 23.0747 29.5151 23.352 27.8298 23.352ZM27.8298 19.128C29.0884 19.128 30.1551 18.84 31.0298 18.264C31.9258 17.6667 32.6084 16.8133 33.0778 15.704C33.5684 14.5733 33.8138 13.24 33.8138 11.704C33.8138 9.35733 33.2911 7.544 32.2458 6.264C31.2004 4.96267 29.7284 4.312 27.8298 4.312C26.5924 4.312 25.5258 4.6 24.6298 5.176C23.7338 5.752 23.0511 6.59467 22.5818 7.704C22.1124 8.81333 21.8778 10.1467 21.8778 11.704C21.8778 14.0293 22.4004 15.8533 23.4458 17.176C24.4911 18.4773 25.9524 19.128 27.8298 19.128ZM54.0025 23.352C51.4638 23.352 49.3092 22.872 47.5385 21.912C45.7892 20.952 44.4558 19.608 43.5385 17.88C42.6212 16.152 42.1625 14.1253 42.1625 11.8C42.1625 10.008 42.4292 8.39733 42.9625 6.968C43.5172 5.51733 44.3065 4.29067 45.3305 3.288C46.3758 2.264 47.6345 1.47467 49.1065 0.919998C50.5998 0.365332 52.2852 0.0879993 54.1625 0.0879993C55.3145 0.0879993 56.4665 0.215999 57.6185 0.471998C58.7705 0.727999 59.8798 1.15467 60.9465 1.752C61.3945 2.008 61.6932 2.33867 61.8425 2.744C62.0132 3.128 62.0558 3.544 61.9705 3.992C61.9065 4.41867 61.7358 4.80267 61.4585 5.144C61.2025 5.464 60.8612 5.67733 60.4345 5.784C60.0292 5.86933 59.5598 5.784 59.0265 5.528C58.3225 5.144 57.5758 4.86667 56.7865 4.696C55.9972 4.504 55.1332 4.408 54.1945 4.408C52.6798 4.408 51.4105 4.696 50.3865 5.272C49.3625 5.82667 48.5945 6.65867 48.0825 7.768C47.5918 8.856 47.3465 10.2 47.3465 11.8C47.3465 14.2107 47.9225 16.0347 49.0745 17.272C50.2478 18.5093 51.9758 19.128 54.2585 19.128C55.0265 19.128 55.8158 19.0533 56.6265 18.904C57.4372 18.7547 58.2372 18.5413 59.0265 18.264L58.0985 20.28V14.136H55.2185C54.5785 14.136 54.0878 13.976 53.7465 13.656C53.4052 13.336 53.2345 12.8987 53.2345 12.344C53.2345 11.768 53.4052 11.3307 53.7465 11.032C54.0878 10.712 54.5785 10.552 55.2185 10.552H60.2425C60.8825 10.552 61.3625 10.7227 61.6825 11.064C62.0238 11.4053 62.1945 11.896 62.1945 12.536V19.96C62.1945 20.5147 62.0878 20.984 61.8745 21.368C61.6612 21.752 61.2985 22.0293 60.7865 22.2C59.8265 22.5413 58.7492 22.8187 57.5545 23.032C56.3598 23.2453 55.1758 23.352 54.0025 23.352ZM77.0485 23.352C74.8298 23.352 72.8778 22.872 71.1925 21.912C69.5285 20.9307 68.2272 19.5653 67.2885 17.816C66.3712 16.0667 65.9125 14.0293 65.9125 11.704C65.9125 9.93333 66.1685 8.344 66.6805 6.936C67.2138 5.50667 67.9712 4.29067 68.9525 3.288C69.9338 2.264 71.1072 1.47467 72.4725 0.919998C73.8592 0.365332 75.3845 0.0879993 77.0485 0.0879993C79.3098 0.0879993 81.2725 0.568 82.9365 1.528C84.6005 2.488 85.8912 3.84267 86.8085 5.592C87.7472 7.32 88.2165 9.34667 88.2165 11.672C88.2165 13.4427 87.9498 15.0427 87.4165 16.472C86.8832 17.9013 86.1258 19.128 85.1445 20.152C84.1632 21.176 82.9898 21.9653 81.6245 22.52C80.2592 23.0747 78.7338 23.352 77.0485 23.352ZM77.0485 19.128C78.3072 19.128 79.3738 18.84 80.2485 18.264C81.1445 17.6667 81.8272 16.8133 82.2965 15.704C82.7872 14.5733 83.0325 13.24 83.0325 11.704C83.0325 9.35733 82.5098 7.544 81.4645 6.264C80.4192 4.96267 78.9472 4.312 77.0485 4.312C75.8112 4.312 74.7445 4.6 73.8485 5.176C72.9525 5.752 72.2698 6.59467 71.8005 7.704C71.3312 8.81333 71.0965 10.1467 71.0965 11.704C71.0965 14.0293 71.6192 15.8533 72.6645 17.176C73.7098 18.4773 75.1712 19.128 77.0485 19.128Z" fill="#4D007D"/>
</svg>
